# xmcd CD database file
#
# Track frame offsets:
#	182
#	14172
#	31952
#	46085
#	57557
#	71375
#	86347
#	99367
#	116462
#	119782
#	135825
#	146075
#
# Disc length: 2188 seconds
#
# Revision: 2
# Processed by: cddbd v1.5.2PL0 Copyright (c) Steve Scherf et al.
# Submitted via: CDex 1.51
#
DISCID=a2088a0c
DTITLE=Bill WHARTON - Miami Blues and Liquid Summer
DYEAR=1991
DGENRE=Blues
TTITLE0=Let The Big Dog Eat
TTITLE1=The Sauce Boss
TTITLE2=Alligator
TTITLE3=The Lovin'est Man
TTITLE4=Boogiewoogie Washerwoman
TTITLE5=Great Big Fanny
TTITLE6=Straight Out Of The Bottle
TTITLE7=I Can't Be Satisfied
TTITLE8=Jefferson County Hambone
TTITLE9=Cypress Grove Blues
TTITLE10=Mighty Crazy
TTITLE11=Smuggler's Cove
EXTD=YEAR: 1991
EXTT0=
EXTT1=
EXTT2=
EXTT3=
EXTT4=
EXTT5=
EXTT6=
EXTT7=
EXTT8=
EXTT9=
EXTT10=
EXTT11=
PLAYORDER=
